<svg xmlns="http://www.w3.org/2000/svg" viewBox="0 0 940 430" width="940" height="430" font-family="system-ui, -apple-system, 'Segoe UI', Roboto, sans-serif">
<rect width="940" height="430" fill="#ffffff"/>
<text x="470" y="40" font-size="23" font-weight="700" fill="#1f2933" text-anchor="middle">await lets the caller continue</text>
<path d="M31.03717629108578 84.9367470016703 L274.11451762709765 85.88037763144821 L277.30864763651044 179.5300619950518 L28.02256314549595 178.3455962350592" stroke="none" stroke-width="0" fill="#e7f0ff" stroke-linecap="round" stroke-linejoin="round"/>
<path d="M27.855988498618142 83.65641679634729 C80.89708481216879 86.98568830733215, 128.10028804331435 86.7139770514939, 273.33215281099905 83.6555109364009 M29.42016577566252 84.84148020556437 C114.6277229187777 87.75748990985534, 201.88555428181857 87.770672246393, 274.932842649018 84.21679554928382 M273.3840086212382 84.68015578780323 C275.7381313354057 116.4343827248551, 276.8311079353374 146.9468717239797, 277.2539845636114 182.4888700881973 M275.10886715846135 85.52660608841106 C274.9041640499364 111.45610719509423, 276.41830039711107 138.2148985964246, 276.1025793005712 180.60541787398978 M274.32393431801734 178.39766021349445 C198.27767639908194 181.4668573744145, 123.47381929998755 181.67633769476947, 30.917162338683763 181.26049860400278 M274.3522501870727 181.0658905867819 C217.6502363595384 182.361875410734, 161.16024911721303 182.4688524460159, 30.61414118677862 180.31413419079647 M28.642502509616314 177.43864168915897 C32.436206112878395 161.96353807626292, 32.27106236674078 142.18157201372088, 30.185383038781584 84.42466502580791 M29.38340792255476 181.2838296408765 C30.286293252134694 146.34459061343222, 29.691388576054944 113.79640335524455, 28.81073918240145 86.19107370031998" stroke="#1f2933" stroke-width="1.6" fill="none" stroke-linecap="round" stroke-linejoin="round"/>
<text x="152.5" y="135.5" font-size="17" font-weight="700" fill="#1f2933" text-anchor="middle"></text>
<text x="152.5" y="115" font-size="17" font-weight="700" fill="#1f2933" text-anchor="middle">main starts</text>
<text x="152.5" y="142" font-size="16" font-weight="400" fill="#1f2933" text-anchor="middle">slowLog()</text>
<path d="M346.03717629108576 84.9367470016703 L589.1145176270977 85.88037763144821 L592.3086476365104 179.5300619950518 L343.02256314549595 178.3455962350592" stroke="none" stroke-width="0" fill="#fff7d6" stroke-linecap="round" stroke-linejoin="round"/>
<path d="M342.85598849861816 83.65641679634729 C395.89708481216877 86.98568830733215, 443.1002880433143 86.7139770514939, 588.3321528109991 83.6555109364009 M344.4201657756625 84.84148020556437 C429.6277229187777 87.75748990985534, 516.8855542818186 87.770672246393, 589.9328426490181 84.21679554928382 M588.3840086212382 84.68015578780323 C590.7381313354057 116.4343827248551, 591.8311079353374 146.9468717239797, 592.2539845636114 182.4888700881973 M590.1088671584614 85.52660608841106 C589.9041640499364 111.45610719509423, 591.4183003971111 138.2148985964246, 591.1025793005713 180.60541787398978 M589.3239343180173 178.39766021349445 C513.2776763990819 181.4668573744145, 438.47381929998755 181.67633769476947, 345.91716233868374 181.26049860400278 M589.3522501870727 181.0658905867819 C532.6502363595384 182.361875410734, 476.160249117213 182.4688524460159, 345.6141411867786 180.31413419079647 M343.6425025096163 177.43864168915897 C347.4362061128784 161.96353807626292, 347.27106236674075 142.18157201372088, 345.1853830387816 84.42466502580791 M344.38340792255474 181.2838296408765 C345.28629325213467 146.34459061343222, 344.6913885760549 113.79640335524455, 343.81073918240145 86.19107370031998" stroke="#1f2933" stroke-width="1.6" fill="none" stroke-linecap="round" stroke-linejoin="round"/>
<text x="467.5" y="135.5" font-size="17" font-weight="700" fill="#1f2933" text-anchor="middle"></text>
<text x="467.5" y="115" font-size="17" font-weight="700" fill="#1f2933" text-anchor="middle">slowLog pauses</text>
<text x="467.5" y="142" font-size="16" font-weight="400" fill="#1f2933" text-anchor="middle">await wait(100)</text>
<path d="M661.0371762910858 84.9367470016703 L904.1145176270977 85.88037763144821 L907.3086476365104 179.5300619950518 L658.022563145496 178.3455962350592" stroke="none" stroke-width="0" fill="#e9f7ec" stroke-linecap="round" stroke-linejoin="round"/>
<path d="M657.8559884986181 83.65641679634729 C710.8970848121688 86.98568830733215, 758.1002880433143 86.7139770514939, 903.3321528109991 83.6555109364009 M659.4201657756626 84.84148020556437 C744.6277229187777 87.75748990985534, 831.8855542818186 87.770672246393, 904.9328426490181 84.21679554928382 M903.3840086212382 84.68015578780323 C905.7381313354057 116.4343827248551, 906.8311079353374 146.9468717239797, 907.2539845636114 182.4888700881973 M905.1088671584614 85.52660608841106 C904.9041640499364 111.45610719509423, 906.4183003971111 138.2148985964246, 906.1025793005713 180.60541787398978 M904.3239343180173 178.39766021349445 C828.2776763990819 181.4668573744145, 753.4738192999876 181.67633769476947, 660.9171623386837 181.26049860400278 M904.3522501870727 181.0658905867819 C847.6502363595384 182.361875410734, 791.160249117213 182.4688524460159, 660.6141411867786 180.31413419079647 M658.6425025096163 177.43864168915897 C662.4362061128784 161.96353807626292, 662.2710623667408 142.18157201372088, 660.1853830387815 84.42466502580791 M659.3834079225547 181.2838296408765 C660.2862932521348 146.34459061343222, 659.691388576055 113.79640335524455, 658.8107391824014 86.19107370031998" stroke="#1f2933" stroke-width="1.6" fill="none" stroke-linecap="round" stroke-linejoin="round"/>
<text x="782.5" y="135.5" font-size="17" font-weight="700" fill="#1f2933" text-anchor="middle"></text>
<text x="782.5" y="115" font-size="17" font-weight="700" fill="#1f2933" text-anchor="middle">main continues</text>
<text x="782.5" y="142" font-size="16" font-weight="400" fill="#1f2933" text-anchor="middle">&quot;table is set&quot;</text>
<path d="M276.4010973742232 130.3713511267677 C292.89206541180613 132.71091368508263, 302.3065249273553 132.38155393314287, 334.97828862573954 130.37025307212025 M278.2971433748491 131.80784734142944 C298.067886231374 132.4895501182571, 320.32390635916965 132.5055293277994, 336.91859399275853 131.05062444759534" stroke="#1f2933" stroke-width="1.6" fill="none" stroke-linecap="round" stroke-linejoin="round"/>
<path d="M336.111204741681 131.82408568329177 C333.64284184697186 133.91824628190375, 331.04948297475335 135.39176417499823, 328.3347733841069 138.15349942373206 M337.0598769371538 132.2896333486261 C334.0353681513569 133.2978528768521, 332.1069463081439 134.78325095175188, 327.70150048943475 137.1176007059179" stroke="#1f2933" stroke-width="1.6" fill="none" stroke-linecap="round" stroke-linejoin="round"/>
<path d="M336.5492720625643 130.93173203981482 C333.38251309609024 129.69495886074685, 331.03120847478664 128.35278564219763, 327.7065471506841 128.05574412342068 M336.56815004083796 132.71062128801364 C334.24290104176526 130.9071096557815, 332.0844212519369 129.87132620414522, 327.5045252134116 127.4248100420218" stroke="#1f2933" stroke-width="1.6" fill="none" stroke-linecap="round" stroke-linejoin="round"/>
<path d="M592.6425025096163 129.43864168915897 C607.1175603687764 134.08829585139677, 618.9969995984808 134.03452604238913, 652.1853830387815 131.4246650258079 M593.3834079225547 133.2838296408765 C614.8296995530836 131.88924375376848, 634.3238996804693 132.2456247081533, 650.8107391824014 133.19107370031998" stroke="#1f2933" stroke-width="1.6" fill="none" stroke-linecap="round" stroke-linejoin="round"/>
<path d="M652.4842076972965 133.26975620008074 C648.3731218003825 132.48603741529587, 644.3550691851876 136.2316035514786, 643.2835218364722 138.09004355387856 M652.6492258817284 132.33253690887707 C649.4415450020329 133.79509486858984, 646.2634004003779 134.84755449162193, 642.3252643595846 136.8233767093681" stroke="#1f2933" stroke-width="1.6" fill="none" stroke-linecap="round" stroke-linejoin="round"/>
<path d="M653.3786376566533 130.87832431144082 C649.681275714181 131.71588374223808, 645.410306147359 129.6368034946696, 643.095991432441 128.14066880967374 M651.7783991633681 131.50601494435688 C649.1334878266598 130.57222009938764, 646.2373704473821 129.32680571893997, 642.5149645605893 126.55253765889816" stroke="#1f2933" stroke-width="1.6" fill="none" stroke-linecap="round" stroke-linejoin="round"/>
<path d="M346.66629953775555 275.34498699810354 L592.4673854568973 277.3633898904547 L590.3934021392837 384.5146653642878 L343.4117995360866 384.57540643718096" stroke="none" stroke-width="0" fill="#e7f0ff" stroke-linecap="round" stroke-linejoin="round"/>
<path d="M343.41573451575726 275.7843973201948 C427.93912227700196 275.53365827779385, 509.2063982188298 275.50659913979314, 589.4092966758463 275.683778979386 M345.1471083786156 274.2490193546643 C427.32360724066126 271.9158668744903, 508.3271793903572 272.69049982981915, 589.956988793034 275.0854909469449 M588.5473877778277 272.75542351994665 C589.4531634733714 307.4242801435292, 591.5207780585326 341.7614940440282, 590.2580745508894 383.31664598379285 M590.0507172186859 273.9708631868474 C590.5855919039324 299.5445955363102, 589.1897072321251 325.01141822924836, 590.90909286635 385.0217515791766 M590.2404000683168 385.3518097230292 C523.350747430197 385.9556744469958, 457.7130524311564 383.97085424944606, 343.411259934543 384.2835675254485 M589.0519124528889 385.95577500343865 C495.8340808686709 382.80721418405307, 404.5777629092614 382.89892117318476, 345.6990443181695 384.73718476119006 M343.3702440014109 385.8481921056285 C343.99211350540446 343.1670868705958, 345.2037317679338 303.2946831507608, 344.93520743157717 272.59792966041715 M345.55290957884864 385.4982806022279 C344.3758131094873 355.6259510778822, 343.5364269652069 326.1369889966212, 344.5540229965933 275.24406855357813" stroke="#1f2933" stroke-width="1.6" fill="none" stroke-dasharray="7 6" stroke-linecap="round" stroke-linejoin="round"/>
<text x="467.5" y="333" font-size="17" font-weight="700" fill="#1f2933" text-anchor="middle"></text>
<text x="467.5" y="305" font-size="17" font-weight="700" fill="#1f2933" text-anchor="middle">Node.js timer</text>
<text x="467.5" y="332" font-size="16" font-weight="400" fill="#1f2933" text-anchor="middle">wait(100)</text>
<text x="467.5" y="358" font-size="16" font-weight="400" fill="#1f2933" text-anchor="middle">fulfills the Promise</text>
<path d="M662.0367113152519 272.6918985238299 L905.8336437920109 273.0194841554388 L905.5196671882644 385.05484471227976 L660.6091064551845 386.3776982119307" stroke="none" stroke-width="0" fill="#e9f7ec" stroke-linecap="round" stroke-linejoin="round"/>
<path d="M658.6351107695285 273.696384710259 C712.0558751760154 277.57419109809086, 762.5839487248044 277.2374844710032, 905.9969672511752 276.25285667718947 M659.2553402403836 274.04447795584196 C717.4588381928925 276.14527884514837, 774.5841921334422 277.2886511975598, 903.966788689531 274.46226595187005 M907.448889147304 273.7280295113102 C906.2702134249248 316.6802787549794, 902.3750380930937 355.7119204318151, 907.0743311693892 383.8398775855079 M906.0687752802856 274.051554667484 C905.2855906107501 300.5234739867039, 905.0528147646263 328.18530982127413, 904.7899149050005 383.982379278075 M904.0212131960627 386.2094575414626 C828.542419293804 385.04872480433454, 748.7134541423434 383.87489235988545, 661.733755032284 384.72546097818366 M904.6528736593102 384.954450165041 C842.4647812988624 387.5511993609421, 779.4172389886136 387.8032285385625, 660.972209897601 385.90929990075875 M658.0574570408091 382.9088168958202 C659.2841948328428 361.5675612282008, 662.07149974088 332.37729223202916, 661.9526054074988 274.01562537346035 M660.2484731336124 385.24663260532543 C660.6528034506738 348.66878884071485, 659.7057253508269 311.45551369106397, 659.7999481846579 274.69882161868736" stroke="#1f2933" stroke-width="1.6" fill="none" stroke-linecap="round" stroke-linejoin="round"/>
<text x="782.5" y="333" font-size="17" font-weight="700" fill="#1f2933" text-anchor="middle"></text>
<text x="782.5" y="305" font-size="17" font-weight="700" fill="#1f2933" text-anchor="middle">slowLog resumes</text>
<text x="782.5" y="332" font-size="16" font-weight="400" fill="#1f2933" text-anchor="middle">&quot;pasta is ready&quot;</text>
<path d="M468.7186232974753 183.86519242916256 C466.55168258854115 212.54952643411235, 470.0209067852136 234.595424503088, 468.1011310925707 266.29896948132665 M467.5913008500822 184.88333431733773 C467.2402161725696 203.19903556108477, 468.4127481915887 220.18959289537742, 465.9542429764755 267.2627174491994" stroke="#1f2933" stroke-width="1.6" fill="none" stroke-dasharray="7 6" stroke-linecap="round" stroke-linejoin="round"/>
<path d="M468.0345531631354 268.4557377100643 C465.69321282942826 265.56478751339927, 463.7029361553168 261.8223532158874, 461.57305641202163 257.795414485687 M467.4468977423338 268.65092019591947 C466.01275264187535 264.38622255173965, 464.2452097203297 261.29819883595195, 461.7497910355814 257.572428338409" stroke="#1f2933" stroke-width="1.6" fill="none" stroke-linecap="round" stroke-linejoin="round"/>
<path d="M467.1318563810829 269.3393712530192 C468.50877374483497 264.3954135379401, 471.3514273809733 261.39803340372623, 473.2113296766961 257.95563775604364 M467.39004889968317 268.6704366063001 C469.21632514171574 264.6012954282315, 470.1781300646119 260.27202930635224, 471.12083967744 258.72288366499595" stroke="#1f2933" stroke-width="1.6" fill="none" stroke-linecap="round" stroke-linejoin="round"/>
<path d="M596.1721603145822 327.55054520163685 C610.6561479389667 329.54818336517735, 632.2781717190519 328.668152035784, 653.3084311177954 328.0784871021286 M593.7463071961887 327.99466722561044 C606.5875165651552 328.3056612249866, 618.9409593821503 327.0354726221815, 651.6551751305349 328.1587260509841" stroke="#1f2933" stroke-width="1.6" fill="none" stroke-linecap="round" stroke-linejoin="round"/>
<path d="M651.4370783851389 328.07072903907857 C648.6515443032853 330.3620948632068, 645.9380563629234 331.67146797982053, 641.0015212131268 332.537954049279 M652.5253202399938 327.54330473799723 C649.2762902163732 329.2425732417508, 647.1924548276143 330.38932967257927, 641.4575494088442 333.48498952254283" stroke="#1f2933" stroke-width="1.6" fill="none" stroke-linecap="round" stroke-linejoin="round"/>
<path d="M653.0536135042552 327.5974639023002 C649.8254303879992 326.954390300317, 647.9848878840772 325.71774910727186, 641.929293600691 322.7296324094748 M651.8685961236386 328.4834841570677 C650.5840384728933 327.64291785079297, 647.5563399888256 326.54302283926813, 641.9293871849985 322.9570405153315" stroke="#1f2933" stroke-width="1.6" fill="none" stroke-linecap="round" stroke-linejoin="round"/>
<text x="680" y="238" font-size="15" font-weight="400" fill="#1f2933" text-anchor="middle">after about 100 ms, when the thread is free</text>
</svg>
