<svg xmlns="http://www.w3.org/2000/svg" viewBox="0 0 900 410" width="900" height="410" font-family="system-ui, -apple-system, 'Segoe UI', Roboto, sans-serif">
<rect width="900" height="410" fill="#ffffff"/>
<text x="450" y="40" font-size="24" font-weight="700" fill="#1f2933" text-anchor="middle">El signo cambia el resultado justo en 50</text>
<text x="450" y="76" font-size="19" font-weight="400" fill="#1f2933" text-anchor="middle">Envío gratis desde 50</text>
<path d="M356.03717629108576 103.9367470016703 L504.11451762709765 104.88037763144821 L507.30864763651044 179.5300619950518 L353.02256314549595 178.3455962350592" stroke="none" stroke-width="0" fill="#e7f0ff" stroke-linecap="round" stroke-linejoin="round"/>
<path d="M352.4010973742232 102.37135112676769 C387.2949605699629 105.54534610608592, 415.11231524366883 105.21598635414615, 502.97828862573954 102.37025307212025 M354.2971433748491 103.80784734142944 C406.21850458225236 105.8931609312445, 460.62514306092635 105.90914014078677, 504.91859399275853 103.05062444759533 M503.3840086212382 103.68015578780323 C505.51051167829337 129.30657598581163, 506.6034882782251 153.6912582458928, 507.2539845636114 182.4888700881973 M505.10886715846135 104.52660608841106 C504.8438299780331 125.15947180828081, 506.35796632520777 146.62162782279776, 506.1025793005712 180.60541787398978 M504.18049465920774 178.05769461784513 C457.52079768031837 180.40750392047687, 412.367099503614 180.66142930952833, 356.11175504829737 181.5279363611713 M504.21481825606895 181.29203870547934 C469.49214007807893 181.67559133995326, 435.0264737905003 181.80526550341398, 355.7444424350746 180.38078348590062 M353.6425025096163 177.43864168915897 C357.1635603688896 165.9091773269698, 356.99841662275196 150.07285051513463, 355.1853830387816 103.42466502580791 M354.38340792255474 181.2838296408765 C355.3771535516314 152.92550425594672, 354.78224887555166 126.95823064027356, 353.81073918240145 105.19107370031998" stroke="#1f2933" stroke-width="1.6" fill="none" stroke-linecap="round" stroke-linejoin="round"/>
<text x="430" y="135" font-size="17" font-weight="700" fill="#1f2933" text-anchor="middle">49</text>
<text x="430" y="158" font-size="15" font-weight="400" fill="#1f2933" text-anchor="middle">por debajo</text>
<path d="M531.0371762910858 103.9367470016703 L679.1145176270977 104.88037763144821 L682.3086476365104 179.5300619950518 L528.022563145496 178.3455962350592" stroke="none" stroke-width="0" fill="#fff0c9" stroke-linecap="round" stroke-linejoin="round"/>
<path d="M527.4010973742231 102.37135112676769 C562.2949605699629 105.54534610608592, 590.1123152436688 105.21598635414615, 677.9782886257395 102.37025307212025 M529.2971433748492 103.80784734142944 C581.2185045822523 105.8931609312445, 635.6251430609263 105.90914014078677, 679.9185939927586 103.05062444759533 M678.3840086212382 103.68015578780323 C680.5105116782934 129.30657598581163, 681.6034882782251 153.6912582458928, 682.2539845636114 182.4888700881973 M680.1088671584614 104.52660608841106 C679.8438299780331 125.15947180828081, 681.3579663252078 146.62162782279776, 681.1025793005713 180.60541787398978 M679.1804946592077 178.05769461784513 C632.5207976803183 180.40750392047687, 587.367099503614 180.66142930952833, 531.1117550482974 181.5279363611713 M679.214818256069 181.29203870547934 C644.4921400780789 181.67559133995326, 610.0264737905003 181.80526550341398, 530.7444424350746 180.38078348590062 M528.6425025096163 177.43864168915897 C532.1635603688895 165.9091773269698, 531.998416622752 150.07285051513463, 530.1853830387815 103.42466502580791 M529.3834079225547 181.2838296408765 C530.3771535516315 152.92550425594672, 529.7822488755518 126.95823064027356, 528.8107391824014 105.19107370031998" stroke="#1f2933" stroke-width="1.6" fill="none" stroke-linecap="round" stroke-linejoin="round"/>
<text x="605" y="135" font-size="17" font-weight="700" fill="#1f2933" text-anchor="middle">50</text>
<text x="605" y="158" font-size="15" font-weight="400" fill="#1f2933" text-anchor="middle">en el límite</text>
<path d="M706.0371762910858 103.9367470016703 L854.1145176270977 104.88037763144821 L857.3086476365104 179.5300619950518 L703.022563145496 178.3455962350592" stroke="none" stroke-width="0" fill="#e7f0ff" stroke-linecap="round" stroke-linejoin="round"/>
<path d="M702.4010973742231 102.37135112676769 C737.2949605699629 105.54534610608592, 765.1123152436688 105.21598635414615, 852.9782886257395 102.37025307212025 M704.2971433748492 103.80784734142944 C756.2185045822523 105.8931609312445, 810.6251430609263 105.90914014078677, 854.9185939927586 103.05062444759533 M853.3840086212382 103.68015578780323 C855.5105116782934 129.30657598581163, 856.6034882782251 153.6912582458928, 857.2539845636114 182.4888700881973 M855.1088671584614 104.52660608841106 C854.8438299780331 125.15947180828081, 856.3579663252078 146.62162782279776, 856.1025793005713 180.60541787398978 M854.1804946592077 178.05769461784513 C807.5207976803183 180.40750392047687, 762.367099503614 180.66142930952833, 706.1117550482974 181.5279363611713 M854.214818256069 181.29203870547934 C819.4921400780789 181.67559133995326, 785.0264737905003 181.80526550341398, 705.7444424350746 180.38078348590062 M703.6425025096163 177.43864168915897 C707.1635603688895 165.9091773269698, 706.998416622752 150.07285051513463, 705.1853830387815 103.42466502580791 M704.3834079225547 181.2838296408765 C705.3771535516315 152.92550425594672, 704.7822488755518 126.95823064027356, 703.8107391824014 105.19107370031998" stroke="#1f2933" stroke-width="1.6" fill="none" stroke-linecap="round" stroke-linejoin="round"/>
<text x="780" y="135" font-size="17" font-weight="700" fill="#1f2933" text-anchor="middle">51</text>
<text x="780" y="158" font-size="15" font-weight="400" fill="#1f2933" text-anchor="middle">por encima</text>
<path d="M36.03717629108578 211.9367470016703 L314.11451762709765 212.8803776314482 L317.30864763651044 285.5300619950518 L33.02256314549595 284.3455962350592" stroke="none" stroke-width="0" fill="#e9f7ec" stroke-linecap="round" stroke-linejoin="round"/>
<path d="M33.00760328000071 210.75142891431392 C92.76457819804665 214.08863390812155, 147.0964893878459 213.83613684149196, 313.45009540915066 210.75058711267954 M34.46116902546057 211.85269000736005 C131.92899930154277 214.97185962214243, 231.30211769209924 214.98410976355382, 314.9375917126685 211.27218022026 M313.3840086212382 211.68015578780324 C315.4865517143868 236.66154369749128, 316.5795283143185 260.4011936692521, 317.2539845636114 288.4888700881973 M315.10886715846135 212.52660608841106 C314.83747902309597 232.6019312412478, 316.3516153702706 253.50654668873176, 316.1025793005712 286.6054178739898 M314.37174262058846 284.5109704248786 C227.49760538180502 287.7502363889034, 141.77801200474073 287.9449032099119, 35.85230477267619 287.17136185256476 M314.39805611965016 286.99051563278164 C249.59830338623138 288.5302263774795, 184.99558367835866 288.6296384814134, 35.570711904001236 286.291920043796 M33.642502509616314 283.438641689159 C37.13486081689074 272.3245077744126, 36.96971707075313 256.9035114100203, 35.18538303878158 211.4246650258079 M34.38340792255476 287.2838296408765 C35.38671779368371 259.61823200779037, 34.79181311760396 234.34368614396078, 33.81073918240145 213.19107370031998" stroke="#1f2933" stroke-width="1.6" fill="none" stroke-linecap="round" stroke-linejoin="round"/>
<text x="175" y="242" font-size="17" font-weight="700" fill="#1f2933" text-anchor="middle">amount &gt;= 50</text>
<text x="175" y="265" font-size="15" font-weight="400" fill="#1f2933" text-anchor="middle">incluye 50</text>
<path d="M36.03717629108578 311.9367470016703 L314.11451762709765 312.8803776314482 L317.30864763651044 385.5300619950518 L33.02256314549595 384.3455962350592" stroke="none" stroke-width="0" fill="#fff0ec" stroke-linecap="round" stroke-linejoin="round"/>
<path d="M33.00760328000071 310.7514289143139 C92.76457819804665 314.0886339081216, 147.0964893878459 313.83613684149196, 313.45009540915066 310.75058711267957 M34.46116902546057 311.8526900073601 C131.92899930154277 314.97185962214246, 231.30211769209924 314.9841097635539, 314.9375917126685 311.27218022026 M313.3840086212382 311.68015578780324 C315.4865517143868 336.66154369749125, 316.5795283143185 360.4011936692521, 317.2539845636114 388.4888700881973 M315.10886715846135 312.5266060884111 C314.83747902309597 332.60193124124777, 316.3516153702706 353.50654668873176, 316.1025793005712 386.6054178739898 M314.37174262058846 384.5109704248786 C227.49760538180502 387.7502363889034, 141.77801200474073 387.9449032099119, 35.85230477267619 387.17136185256476 M314.39805611965016 386.99051563278164 C249.59830338623138 388.5302263774795, 184.99558367835866 388.6296384814134, 35.570711904001236 386.291920043796 M33.642502509616314 383.438641689159 C37.13486081689074 372.3245077744126, 36.96971707075313 356.9035114100203, 35.18538303878158 311.42466502580794 M34.38340792255476 387.2838296408765 C35.38671779368371 359.61823200779037, 34.79181311760396 334.3436861439608, 33.81073918240145 313.19107370032" stroke="#1f2933" stroke-width="1.6" fill="none" stroke-linecap="round" stroke-linejoin="round"/>
<text x="175" y="342" font-size="17" font-weight="700" fill="#1f2933" text-anchor="middle">amount &gt; 50</text>
<text x="175" y="365" font-size="15" font-weight="400" fill="#1f2933" text-anchor="middle">excluye 50</text>
<text x="430" y="258" font-size="24" font-weight="400" fill="#1f2933" text-anchor="middle" font-family="monospace">false</text>
<text x="605" y="258" font-size="24" font-weight="400" fill="#1f2933" text-anchor="middle" font-family="monospace">true</text>
<text x="780" y="258" font-size="24" font-weight="400" fill="#1f2933" text-anchor="middle" font-family="monospace">true</text>
<text x="430" y="357" font-size="24" font-weight="400" fill="#1f2933" text-anchor="middle" font-family="monospace">false</text>
<text x="605" y="357" font-size="24" font-weight="400" fill="#b42318" text-anchor="middle" font-family="monospace">false</text>
<text x="780" y="357" font-size="24" font-weight="400" fill="#1f2933" text-anchor="middle" font-family="monospace">true</text>
</svg>
