<svg xmlns="http://www.w3.org/2000/svg" viewBox="0 0 940 520" width="940" height="520" font-family="system-ui, -apple-system, 'Segoe UI', Roboto, sans-serif">
<rect width="940" height="520" fill="#ffffff"/>
<text x="470" y="40" font-size="23" font-weight="700" fill="#1f2933" text-anchor="middle">Dos valores iguales pueden ser reglas independientes</text>
<path d="M56.03717629108578 99.9367470016703 L424.11451762709765 100.88037763144821 L427.30864763651044 189.5300619950518 L53.02256314549595 188.3455962350592" stroke="none" stroke-width="0" fill="#e7f0ff" stroke-linecap="round" stroke-linejoin="round"/>
<path d="M53.39746986069874 98.99574578908525 C130.4238469045897 102.18327660705037, 203.08672141664132 101.98018745552878, 423.75337637582624 98.99506870882465 M54.566605953512706 99.88151521197754 C183.56085285722435 103.23701115386498, 314.0875664613924 103.24686422209453, 424.9498035906268 99.41459794562734 M423.3840086212382 99.68015578780323 C425.67823142563924 129.82180200405418, 426.77120802557096 158.7217102823779, 427.2539845636114 192.4888700881973 M425.10886715846135 100.52660608841106 C424.8882866625935 125.06225577751175, 426.40242300976814 150.42719576125964, 426.1025793005712 190.60541787398978 M424.49467825577136 188.8023395398664 C309.7774227659501 192.2083956190934, 195.98879324553462 192.36497058463954, 55.685528174371015 190.94215306315272 M424.51584280342075 190.79669432249526 C338.8933328834418 192.7287550501675, 253.42930112130452 192.80871447349233, 55.459036605430825 190.23479795150905 M53.642502509616314 187.43864168915897 C57.364457232881335 173.00186419487, 57.19931348674372 154.25822425093503, 55.18538303878158 99.42466502580791 M54.38340792255476 191.2838296408765 C55.310203857265414 158.0764099930413, 54.715299181185664 127.2600421144627, 53.81073918240145 101.19107370031998" stroke="#1f2933" stroke-width="1.6" fill="none" stroke-linecap="round" stroke-linejoin="round"/>
<text x="240" y="148" font-size="17" font-weight="700" fill="#1f2933" text-anchor="middle"></text>
<text x="240" y="136" font-size="17" font-weight="700" fill="#1f2933" text-anchor="middle">Regla de la pizzería</text>
<text x="240" y="163" font-size="15" font-weight="400" fill="#1f2933" text-anchor="middle">MAX_TOPPINGS = 10</text>
<path d="M516.0371762910858 99.9367470016703 L884.1145176270977 100.88037763144821 L887.3086476365104 189.5300619950518 L513.022563145496 188.3455962350592" stroke="none" stroke-width="0" fill="#fff7d6" stroke-linecap="round" stroke-linejoin="round"/>
<path d="M513.3974698606987 98.99574578908525 C590.4238469045897 102.18327660705037, 663.0867214166414 101.98018745552878, 883.7533763758263 98.99506870882465 M514.5666059535127 99.88151521197754 C643.5608528572243 103.23701115386498, 774.0875664613924 103.24686422209453, 884.9498035906267 99.41459794562734 M883.3840086212382 99.68015578780323 C885.6782314256393 129.82180200405418, 886.771208025571 158.7217102823779, 887.2539845636114 192.4888700881973 M885.1088671584614 100.52660608841106 C884.8882866625935 125.06225577751175, 886.4024230097682 150.42719576125964, 886.1025793005713 190.60541787398978 M884.4946782557714 188.8023395398664 C769.7774227659502 192.2083956190934, 655.9887932455347 192.36497058463954, 515.685528174371 190.94215306315272 M884.5158428034207 190.79669432249526 C798.8933328834418 192.7287550501675, 713.4293011213045 192.80871447349233, 515.4590366054308 190.23479795150905 M513.6425025096163 187.43864168915897 C517.3644572328814 173.00186419487, 517.1993134867438 154.25822425093503, 515.1853830387815 99.42466502580791 M514.3834079225547 191.2838296408765 C515.3102038572655 158.0764099930413, 514.7152991811857 127.2600421144627, 513.8107391824014 101.19107370031998" stroke="#1f2933" stroke-width="1.6" fill="none" stroke-linecap="round" stroke-linejoin="round"/>
<text x="700" y="148" font-size="17" font-weight="700" fill="#1f2933" text-anchor="middle"></text>
<text x="700" y="136" font-size="17" font-weight="700" fill="#1f2933" text-anchor="middle">Regla de los títulos</text>
<text x="700" y="163" font-size="15" font-weight="400" fill="#1f2933" text-anchor="middle">MAX_TITLE_LENGTH = 10</text>
<text x="240" y="245" font-size="17" font-weight="400" fill="#1f2933" text-anchor="middle">La pizzería permite más</text>
<text x="700" y="245" font-size="17" font-weight="400" fill="#1f2933" text-anchor="middle">El límite del título sigue igual</text>
<path d="M87.40109737422317 193.3713511267677 C92.57249344774894 214.18784802863374, 90.38512775489502 232.86147784218193, 87.97828862573951 288.37025307212025 M89.29714337484911 194.80784734142944 C89.39478459705226 227.80367312021554, 91.38193663407677 261.01866040946913, 89.91859399275855 289.05062444759534" stroke="#1f2933" stroke-width="1.6" fill="none" stroke-linecap="round" stroke-linejoin="round"/>
<path d="M89.111204741681 289.8240856832918 C88.11823996107218 287.21284527636186, 87.17625961508921 283.94874969133, 86.45507063476276 281.4639604226291 M90.05987693715375 290.28963334862607 C88.41610856748895 287.21373737796426, 87.91507344053 284.60412850079996, 85.82179774009064 280.428061704815" stroke="#1f2933" stroke-width="1.6" fill="none" stroke-linecap="round" stroke-linejoin="round"/>
<path d="M89.54927206256427 288.9317320398148 C90.94571724654905 285.8972378737453, 93.14387060864534 282.96927103685124, 95.39608615178707 280.93544687276477 M89.56815004083793 290.71062128801367 C90.61468972330114 287.5387302825122, 91.85519417036359 285.31817107706445, 95.19406421451457 280.30451279136594" stroke="#1f2933" stroke-width="1.6" fill="none" stroke-linecap="round" stroke-linejoin="round"/>
<path d="M553.6425025096163 192.43864168915897 C554.7097486729901 216.41993058333173, 554.5446049268526 236.0943570278585, 555.1853830387815 289.42466502580794 M554.3834079225547 196.2838296408765 C556.194896247102 227.1537270385772, 555.5999915710222 260.4146762055345, 553.8107391824014 291.19107370032" stroke="#1f2933" stroke-width="1.6" fill="none" stroke-linecap="round" stroke-linejoin="round"/>
<path d="M555.4842076972965 291.26975620008074 C553.1190417241904 285.52039309814785, 550.8413340884882 284.27311131942565, 551.4038190871282 281.4005045527756 M555.6492258817283 290.3325369088771 C553.7059806383231 287.7808423649615, 551.9486724611567 284.757087063355, 550.4455616102406 280.1338377082651" stroke="#1f2933" stroke-width="1.6" fill="none" stroke-linecap="round" stroke-linejoin="round"/>
<path d="M556.3786376566533 288.8783243114408 C557.8084946082877 287.75794690715156, 558.6488066168349 283.8972395441424, 560.7855304335438 281.02037155901786 M554.7783991633681 289.5060149443569 C556.6163397785767 287.2503173213345, 558.1665092578442 284.455071433191, 560.2045035616923 279.4322404082423" stroke="#1f2933" stroke-width="1.6" fill="none" stroke-linecap="round" stroke-linejoin="round"/>
<path d="M56.66629953775555 295.34498699810354 L427.4673854568973 297.3633898904547 L425.3934021392837 384.5146653642878 L53.41179953608662 384.57540643718096" stroke="none" stroke-width="0" fill="#e9f7ec" stroke-linecap="round" stroke-linejoin="round"/>
<path d="M53.81584908219134 295.58629365840113 C179.05618013939866 295.09988517998903, 301.8627475138145 295.07965996936787, 424.5584819019247 295.511087007873 M55.10995538518489 294.4386834597638 C178.82804788342585 291.89991623578436, 301.66944246912277 292.4789115709355, 424.9678514991891 295.0638997594128 M423.5473877778277 292.75542351994665 C424.41599399530514 321.58544858284296, 426.48360858046635 350.08383092265575, 425.25807455088943 383.31664598379285 M425.0507172186859 293.9708631868474 C425.61310106898844 315.06899271765724, 424.2172163971811 336.0602125919424, 425.90909286634997 385.0217515791766 M425.17968576881213 385.2629583302562 C325.2949619310661 385.96605175857917, 226.34600725708611 384.482508323473, 53.812504579957086 384.4645063086168 M424.2913569409668 385.7143890079013 C283.5111871653814 382.5684221696094, 144.1971404494809 382.6369680771166, 55.52249700519421 384.80356012969656 M53.3702440014109 385.8481921056285 C53.86284392182902 350.7120967388153, 55.07446218435839 318.3847028871998, 54.93520743157715 292.59792966041715 M55.55290957884863 385.4982806022279 C54.47165620645136 361.05874953614546, 53.63227006217092 337.00258591314775, 54.55402299659327 295.24406855357813" stroke="#1f2933" stroke-width="1.6" fill="none" stroke-linecap="round" stroke-linejoin="round"/>
<text x="240" y="343" font-size="17" font-weight="700" fill="#1f2933" text-anchor="middle"></text>
<text x="240" y="331" font-size="17" font-weight="700" fill="#1f2933" text-anchor="middle">MAX_TOPPINGS = 12</text>
<text x="240" y="358" font-size="15" font-weight="400" fill="#1f2933" text-anchor="middle">Hasta 12 ingredientes</text>
<path d="M517.0367113152519 292.6918985238299 L885.8336437920109 293.0194841554388 L885.5196671882644 385.05484471227976 L515.6091064551845 386.3776982119307" stroke="none" stroke-width="0" fill="#fff7d6" stroke-linecap="round" stroke-linejoin="round"/>
<path d="M513.9798207112095 294.02561959648193 C593.038785930978 297.2779454234478, 669.9356245576032 297.02627582295236, 885.7451779371868 295.936441145081 M514.443407972606 294.28580006518473 C601.5562140698247 296.6679492701216, 687.8631670862375 297.52255693150875, 884.227731630998 294.5980735091667 M887.448889147304 293.7280295113102 C886.4597274299823 329.1457179386169, 882.5645520981512 360.6427987990901, 887.0743311693892 383.8398775855079 M886.0687752802856 294.051554667484 C885.4146385216862 315.65352779189124, 885.1818626755625 338.4454174316488, 884.7899149050005 383.982379278075 M884.2684109426424 385.9040026889547 C768.481206617201 385.1323091976332, 649.4424896326742 384.2549343003871, 516.2958860955781 384.7947972496456 M884.7405422392827 384.96595401502515 C790.7088354148844 387.98111837340446, 696.0347372381593 388.1694962589054, 515.7266731832495 385.6796514364267 M513.0574570408091 382.9088168958202 C514.2144099790343 366.14674029350283, 517.0017148870714 341.5356503626332, 516.9526054074988 294.01562537346035 M515.2484731336124 385.24663260532543 C515.4982013076171 355.32448292123155, 514.5511232077703 324.76690185209736, 514.7999481846579 294.69882161868736" stroke="#1f2933" stroke-width="1.6" fill="none" stroke-linecap="round" stroke-linejoin="round"/>
<text x="700" y="343" font-size="17" font-weight="700" fill="#1f2933" text-anchor="middle"></text>
<text x="700" y="331" font-size="17" font-weight="700" fill="#1f2933" text-anchor="middle">MAX_TITLE_LENGTH = 10</text>
<text x="700" y="358" font-size="15" font-weight="400" fill="#1f2933" text-anchor="middle">Hasta 10 caracteres</text>
<text x="470" y="465" font-size="18" font-weight="400" fill="#1f2933" text-anchor="middle">Un cambio de ingredientes no cambia los títulos.</text>
</svg>
